<svg width="200" height="200" viewBox="0 0 200 200" fill="none" xmlns="http://www.w3.org/2000/svg">
<circle cx="100" cy="100" r="100" fill="#FFBD12"/>
<path fill-rule="evenodd" clip-rule="evenodd" d="M48.2235 155.294C61.7313 168.802 78.746 175.556 99.2676 175.556C111.736 175.556 123.166 172.698 133.557 166.983C144.077 161.139 152.325 153.216 158.3 143.215L128.102 125.68C125.504 130.616 121.608 134.512 116.412 137.37C111.347 140.097 105.632 141.461 99.2676 141.461C88.3574 141.461 79.5253 138.084 72.7714 131.33C66.1474 124.446 62.8353 115.485 62.8353 104.444C62.8353 93.4044 66.1474 84.5074 72.7714 77.7534C79.5253 70.8696 88.3574 67.4277 99.2676 67.4277C105.632 67.4277 111.347 68.8564 116.412 71.7139C121.608 74.4414 125.504 78.208 128.102 83.0137L158.3 65.6743C152.325 55.8032 144.077 47.9452 133.557 42.1005C123.036 36.2557 111.607 33.3333 99.2676 33.3333C78.746 33.3333 61.7313 40.1522 48.2235 53.79C34.8455 67.2978 28.1565 84.1827 28.1565 104.444C28.1565 124.706 34.8455 141.656 48.2235 155.294ZM155.556 120C164.147 120 171.111 113.036 171.111 104.444C171.111 95.8533 164.147 88.8889 155.556 88.8889C146.964 88.8889 140 95.8533 140 104.444C140 113.036 146.964 120 155.556 120Z" fill="#18191F"/>
<path fill-rule="evenodd" clip-rule="evenodd" d="M118.537 141.274L118.519 141.283C112.74 144.395 106.288 145.906 99.2676 145.906C87.3609 145.906 77.3367 142.181 69.6287 134.473L69.5985 134.443L69.5689 134.412C62.0238 126.571 58.3909 116.441 58.3909 104.444C58.3909 92.4498 62.0238 82.3645 69.5984 74.6414C77.3009 66.7907 87.3353 62.9833 99.2676 62.9833C106.299 62.9833 112.759 64.564 118.537 67.8099C123.006 70.166 126.703 73.248 129.554 77.0549L151.996 64.1686C146.714 56.7479 139.867 50.6906 131.398 45.9856C121.555 40.5172 110.871 37.7778 99.2676 37.7778C79.8412 37.7778 63.9925 44.185 51.3812 56.9176C38.8855 69.5345 32.6009 85.2687 32.6009 104.444C32.6009 123.613 38.8813 139.416 51.3811 152.166C63.987 164.764 79.8356 171.111 99.2676 171.111C111.024 171.111 121.708 168.426 131.406 163.094C139.887 158.381 146.745 152.26 152.035 144.716L129.59 131.684C126.743 135.6 123.042 138.796 118.554 141.264L118.537 141.274ZM126.926 127.706C124.38 131.694 120.875 134.915 116.412 137.37C111.347 140.097 105.632 141.461 99.2676 141.461C88.3574 141.461 79.5253 138.084 72.7714 131.33C66.1474 124.446 62.8353 115.485 62.8353 104.444C62.8353 93.4044 66.1474 84.5074 72.7714 77.7534C79.5253 70.8696 88.3574 67.4277 99.2676 67.4277C105.632 67.4277 111.347 68.8564 116.412 71.7139C121.164 74.2087 124.83 77.5728 127.408 81.8063C127.649 82.2012 127.88 82.6037 128.102 83.0137L158.3 65.6743C157.527 64.3978 156.716 63.1549 155.868 61.9457C150.154 53.8045 142.717 47.1894 133.557 42.1005C123.036 36.2557 111.607 33.3333 99.2676 33.3333C78.746 33.3333 61.7313 40.1522 48.2235 53.79C34.8455 67.2978 28.1565 84.1827 28.1565 104.444C28.1565 124.706 34.8455 141.656 48.2235 155.294C61.7313 168.802 78.746 175.556 99.2676 175.556C111.736 175.556 123.166 172.698 133.557 166.983C142.73 161.887 150.175 155.211 155.892 146.956C156.732 145.743 157.534 144.496 158.3 143.215L128.102 125.68C127.736 126.376 127.344 127.051 126.926 127.706ZM155.556 115.556C161.692 115.556 166.667 110.581 166.667 104.444C166.667 98.3079 161.692 93.3333 155.556 93.3333C149.419 93.3333 144.444 98.3079 144.444 104.444C144.444 110.581 149.419 115.556 155.556 115.556ZM171.111 104.444C171.111 113.036 164.147 120 155.556 120C146.964 120 140 113.036 140 104.444C140 95.8533 146.964 88.8889 155.556 88.8889C164.147 88.8889 171.111 95.8533 171.111 104.444Z" fill="#18191F"/>
<path fill-rule="evenodd" clip-rule="evenodd" d="M48.2235 150.849C61.7313 164.357 78.746 171.111 99.2676 171.111C111.736 171.111 123.166 168.254 133.557 162.539C144.077 156.694 152.325 148.771 158.3 138.77L128.102 121.236C125.504 126.171 121.608 130.068 116.412 132.925C111.347 135.653 105.632 137.017 99.2676 137.017C88.3574 137.017 79.5253 133.64 72.7714 126.886C66.1474 120.002 62.8353 111.04 62.8353 100C62.8353 88.9599 66.1474 80.0629 72.7714 73.309C79.5253 66.4252 88.3574 62.9833 99.2676 62.9833C105.632 62.9833 111.347 64.412 116.412 67.2694C121.608 69.997 125.504 73.7636 128.102 78.5693L158.3 61.2298C152.325 51.3587 144.077 43.5008 133.557 37.656C123.036 31.8113 111.607 28.8889 99.2676 28.8889C78.746 28.8889 61.7313 35.7078 48.2235 49.3455C34.8455 62.8534 28.1565 79.7382 28.1565 100C28.1565 120.262 34.8455 137.212 48.2235 150.849ZM155.556 115.556C164.147 115.556 171.111 108.591 171.111 100C171.111 91.4089 164.147 84.4444 155.556 84.4444C146.964 84.4444 140 91.4089 140 100C140 108.591 146.964 115.556 155.556 115.556Z" fill="white"/>
<path fill-rule="evenodd" clip-rule="evenodd" d="M118.537 136.829L118.519 136.839C112.74 139.951 106.288 141.461 99.2676 141.461C87.3609 141.461 77.3367 137.737 69.6287 130.029L69.5985 129.998L69.5689 129.968C62.0238 122.127 58.3909 111.997 58.3909 100C58.3909 88.0053 62.0238 77.92 69.5984 70.1969C77.3009 62.3463 87.3353 58.5388 99.2676 58.5388C106.299 58.5388 112.759 60.1196 118.537 63.3655C123.006 65.7216 126.703 68.8035 129.554 72.6104L151.996 59.7242C146.714 52.3035 139.867 46.2461 131.398 41.5412C121.555 36.0728 110.871 33.3333 99.2676 33.3333C79.8412 33.3333 63.9925 39.7406 51.3812 52.4731C38.8855 65.0901 32.6009 80.8242 32.6009 100C32.6009 119.168 38.8813 134.971 51.3811 147.722C63.987 160.32 79.8356 166.667 99.2676 166.667C111.024 166.667 121.708 163.981 131.406 158.65C139.887 153.936 146.745 147.816 152.035 140.272L129.59 127.24C126.743 131.156 123.042 134.351 118.554 136.82L118.537 136.829ZM126.926 123.261C124.38 127.249 120.875 130.471 116.412 132.925C111.347 135.653 105.632 137.017 99.2676 137.017C88.3574 137.017 79.5253 133.64 72.7714 126.886C66.1474 120.002 62.8353 111.04 62.8353 100C62.8353 88.9599 66.1474 80.0629 72.7714 73.309C79.5253 66.4252 88.3574 62.9833 99.2676 62.9833C105.632 62.9833 111.347 64.412 116.412 67.2694C121.164 69.7642 124.83 73.1284 127.408 77.3618C127.649 77.7567 127.88 78.1592 128.102 78.5693L158.3 61.2298C157.527 59.9533 156.716 58.7104 155.868 57.5012C150.154 49.36 142.717 42.7449 133.557 37.656C123.036 31.8113 111.607 28.8889 99.2676 28.8889C78.746 28.8889 61.7313 35.7078 48.2235 49.3455C34.8455 62.8534 28.1565 79.7382 28.1565 100C28.1565 120.262 34.8455 137.212 48.2235 150.849C61.7313 164.357 78.746 171.111 99.2676 171.111C111.736 171.111 123.166 168.254 133.557 162.539C142.73 157.443 150.175 150.767 155.892 142.511C156.732 141.298 157.534 140.051 158.3 138.77L128.102 121.236C127.736 121.932 127.344 122.607 126.926 123.261ZM155.556 111.111C161.692 111.111 166.667 106.136 166.667 100C166.667 93.8635 161.692 88.8889 155.556 88.8889C149.419 88.8889 144.444 93.8635 144.444 100C144.444 106.136 149.419 111.111 155.556 111.111ZM171.111 100C171.111 108.591 164.147 115.556 155.556 115.556C146.964 115.556 140 108.591 140 100C140 91.4089 146.964 84.4444 155.556 84.4444C164.147 84.4444 171.111 91.4089 171.111 100Z" fill="#18191F"/>
</svg>
